<svg width="59" height="59" viewBox="0 0 59 59" fill="none" xmlns="http://www.w3.org/2000/svg">
<g filter="url(#filter0_d_74_865)">
<path d="M27.4312 6.50624L6.825 3.37499C5.86875 3.22499 4.89375 3.48749 4.1625 4.10624C3.43125 4.74374 3 5.66249 3 6.61874V46.125C3 47.1562 3.84375 48 4.875 48H10.9688V38.1562C10.9688 36.3375 12.4312 34.875 14.25 34.875H18.9375C20.7563 34.875 22.2188 36.3375 22.2188 38.1562V48H30.1875V9.74999C30.1875 8.13749 29.025 6.76874 27.4312 6.50624ZM13.3125 30.6562H10.5C10.127 30.6562 9.76935 30.5081 9.50563 30.2444C9.24191 29.9806 9.09375 29.623 9.09375 29.25C9.09375 28.877 9.24191 28.5194 9.50563 28.2556C9.76935 27.9919 10.127 27.8437 10.5 27.8437H13.3125C13.6855 27.8437 14.0431 27.9919 14.3069 28.2556C14.5706 28.5194 14.7188 28.877 14.7188 29.25C14.7188 29.623 14.5706 29.9806 14.3069 30.2444C14.0431 30.5081 13.6855 30.6562 13.3125 30.6562ZM13.3125 25.0312H10.5C10.127 25.0312 9.76935 24.8831 9.50563 24.6194C9.24191 24.3556 9.09375 23.998 9.09375 23.625C9.09375 23.252 9.24191 22.8944 9.50563 22.6306C9.76935 22.3669 10.127 22.2187 10.5 22.2187H13.3125C13.6855 22.2187 14.0431 22.3669 14.3069 22.6306C14.5706 22.8944 14.7188 23.252 14.7188 23.625C14.7188 23.998 14.5706 24.3556 14.3069 24.6194C14.0431 24.8831 13.6855 25.0312 13.3125 25.0312ZM13.3125 19.4062H10.5C10.127 19.4062 9.76935 19.2581 9.50563 18.9944C9.24191 18.7306 9.09375 18.373 9.09375 18C9.09375 17.627 9.24191 17.2693 9.50563 17.0056C9.76935 16.7419 10.127 16.5937 10.5 16.5937H13.3125C13.6855 16.5937 14.0431 16.7419 14.3069 17.0056C14.5706 17.2693 14.7188 17.627 14.7188 18C14.7188 18.373 14.5706 18.7306 14.3069 18.9944C14.0431 19.2581 13.6855 19.4062 13.3125 19.4062ZM13.3125 13.7812H10.5C10.127 13.7812 9.76935 13.6331 9.50563 13.3694C9.24191 13.1056 9.09375 12.748 9.09375 12.375C9.09375 12.002 9.24191 11.6443 9.50563 11.3806C9.76935 11.1169 10.127 10.9687 10.5 10.9687H13.3125C13.6855 10.9687 14.0431 11.1169 14.3069 11.3806C14.5706 11.6443 14.7188 12.002 14.7188 12.375C14.7188 12.748 14.5706 13.1056 14.3069 13.3694C14.0431 13.6331 13.6855 13.7812 13.3125 13.7812ZM22.6875 30.6562H19.875C19.502 30.6562 19.1444 30.5081 18.8806 30.2444C18.6169 29.9806 18.4688 29.623 18.4688 29.25C18.4688 28.877 18.6169 28.5194 18.8806 28.2556C19.1444 27.9919 19.502 27.8437 19.875 27.8437H22.6875C23.0605 27.8437 23.4181 27.9919 23.6819 28.2556C23.9456 28.5194 24.0938 28.877 24.0938 29.25C24.0938 29.623 23.9456 29.9806 23.6819 30.2444C23.4181 30.5081 23.0605 30.6562 22.6875 30.6562ZM22.6875 25.0312H19.875C19.502 25.0312 19.1444 24.8831 18.8806 24.6194C18.6169 24.3556 18.4688 23.998 18.4688 23.625C18.4688 23.252 18.6169 22.8944 18.8806 22.6306C19.1444 22.3669 19.502 22.2187 19.875 22.2187H22.6875C23.0605 22.2187 23.4181 22.3669 23.6819 22.6306C23.9456 22.8944 24.0938 23.252 24.0938 23.625C24.0938 23.998 23.9456 24.3556 23.6819 24.6194C23.4181 24.8831 23.0605 25.0312 22.6875 25.0312ZM22.6875 19.4062H19.875C19.502 19.4062 19.1444 19.2581 18.8806 18.9944C18.6169 18.7306 18.4688 18.373 18.4688 18C18.4688 17.627 18.6169 17.2693 18.8806 17.0056C19.1444 16.7419 19.502 16.5937 19.875 16.5937H22.6875C23.0605 16.5937 23.4181 16.7419 23.6819 17.0056C23.9456 17.2693 24.0938 17.627 24.0938 18C24.0938 18.373 23.9456 18.7306 23.6819 18.9944C23.4181 19.2581 23.0605 19.4062 22.6875 19.4062ZM22.6875 13.7812H19.875C19.502 13.7812 19.1444 13.6331 18.8806 13.3694C18.6169 13.1056 18.4688 12.748 18.4688 12.375C18.4688 12.002 18.6169 11.6443 18.8806 11.3806C19.1444 11.1169 19.502 10.9687 19.875 10.9687H22.6875C23.0605 10.9687 23.4181 11.1169 23.6819 11.3806C23.9456 11.6443 24.0938 12.002 24.0938 12.375C24.0938 12.748 23.9456 13.1056 23.6819 13.3694C23.4181 13.6331 23.0605 13.7812 22.6875 13.7812ZM45.4125 23.3287L32.0625 20.5331V48H44.7188C46.5281 48 48 46.5281 48 44.7187V26.535C48 24.9862 46.9444 23.6681 45.4125 23.3287ZM40.9688 42.375H38.1562C37.7833 42.375 37.4256 42.2268 37.1619 41.9631C36.8982 41.6994 36.75 41.3417 36.75 40.9687C36.75 40.5958 36.8982 40.2381 37.1619 39.9744C37.4256 39.7107 37.7833 39.5625 38.1562 39.5625H40.9688C41.3417 39.5625 41.6994 39.7107 41.9631 39.9744C42.2268 40.2381 42.375 40.5958 42.375 40.9687C42.375 41.3417 42.2268 41.6994 41.9631 41.9631C41.6994 42.2268 41.3417 42.375 40.9688 42.375ZM40.9688 36.75H38.1562C37.7833 36.75 37.4256 36.6018 37.1619 36.3381C36.8982 36.0744 36.75 35.7167 36.75 35.3437C36.75 34.9708 36.8982 34.6131 37.1619 34.3494C37.4256 34.0857 37.7833 33.9375 38.1562 33.9375H40.9688C41.3417 33.9375 41.6994 34.0857 41.9631 34.3494C42.2268 34.6131 42.375 34.9708 42.375 35.3437C42.375 35.7167 42.2268 36.0744 41.9631 36.3381C41.6994 36.6018 41.3417 36.75 40.9688 36.75ZM40.9688 31.125H38.1562C37.7833 31.125 37.4256 30.9768 37.1619 30.7131C36.8982 30.4494 36.75 30.0917 36.75 29.7187C36.75 29.3458 36.8982 28.9881 37.1619 28.7244C37.4256 28.4607 37.7833 28.3125 38.1562 28.3125H40.9688C41.3417 28.3125 41.6994 28.4607 41.9631 28.7244C42.2268 28.9881 42.375 29.3458 42.375 29.7187C42.375 30.0917 42.2268 30.4494 41.9631 30.7131C41.6994 30.9768 41.3417 31.125 40.9688 31.125Z" fill="white"/>
</g>
<defs>
<filter id="filter0_d_74_865" x="0" y="0" width="59" height="59" filterUnits="userSpaceOnUse" color-interpolation-filters="sRGB">
<feFlood flood-opacity="0" result="BackgroundImageFix"/>
<feColorMatrix in="SourceAlpha" type="matrix" values="0 0 0 0 0 0 0 0 0 0 0 0 0 0 0 0 0 0 127 0" result="hardAlpha"/>
<feOffset dx="4" dy="4"/>
<feGaussianBlur stdDeviation="3.5"/>
<feComposite in2="hardAlpha" operator="out"/>
<feColorMatrix type="matrix" values="0 0 0 0 0 0 0 0 0 0 0 0 0 0 0 0 0 0 0.2 0"/>
<feBlend mode="normal" in2="BackgroundImageFix" result="effect1_dropShadow_74_865"/>
<feBlend mode="normal" in="SourceGraphic" in2="effect1_dropShadow_74_865" result="shape"/>
</filter>
</defs>
</svg>
