<svg width="20" height="18" viewBox="0 0 20 18" fill="none" xmlns="http://www.w3.org/2000/svg">
<path d="M4.48218 4.42099H7.53739V5.75838H4.48218V4.42099ZM4.48218 7.46214H7.53739V8.79954H4.48218V7.46214ZM4.48218 10.5033H7.53739V11.8406H4.48218V10.5033ZM4.48218 13.5444H7.53739V14.8818H4.48218V13.5444Z" fill="#808080"/>
<path d="M10.6607 16.6626V5.73487L17.359 5.72672V13.0987H18.641V5.05724C18.641 4.69243 18.3487 4.38852 17.9992 4.38852L10.0189 4.39824C9.66517 4.39868 9.37863 4.69791 9.37863 5.06695V16.6626H2.64103V3.43011L9.37863 1.54042V3.05862H10.6607V0.668181C10.6607 0.235557 10.2542 -0.0900473 9.85321 0.0224081L1.83355 2.27165C1.69734 2.3099 1.57702 2.3939 1.49123 2.51064C1.40544 2.62738 1.35895 2.77035 1.35897 2.91742V16.6626H0V18H20V16.6626H10.6607Z" fill="#808080"/>
<path d="M17.3591 14.3023H18.6411V15.5481H17.3591V14.3023ZM12.4626 7.46216H15.5179V8.79955H12.4626V7.46216ZM12.4626 10.5033H15.5179V11.8407H12.4626V10.5033ZM12.4626 13.5444H15.5179V14.8818H12.4626V13.5444Z" fill="#808080"/>
</svg>
