<svg width="24" height="24" viewBox="0 0 24 24" fill="none" xmlns="http://www.w3.org/2000/svg">
<path d="M9.23077 11.3077H5.07692C4.52626 11.3071 3.9983 11.0881 3.60892 10.6988C3.21954 10.3094 3.00055 9.78144 3 9.23077V5.07692C3.00055 4.52626 3.21954 3.9983 3.60892 3.60892C3.9983 3.21954 4.52626 3.00055 5.07692 3H9.23077C9.78144 3.00055 10.3094 3.21954 10.6988 3.60892C11.0881 3.9983 11.3071 4.52626 11.3077 5.07692V9.23077C11.3071 9.78144 11.0881 10.3094 10.6988 10.6988C10.3094 11.0881 9.78144 11.3071 9.23077 11.3077ZM5.07692 4.38462C4.89337 4.3848 4.71738 4.4578 4.58759 4.58759C4.4578 4.71738 4.3848 4.89337 4.38462 5.07692V9.23077C4.3848 9.41432 4.4578 9.59031 4.58759 9.7201C4.71738 9.8499 4.89337 9.92289 5.07692 9.92308H9.23077C9.41432 9.92289 9.59031 9.8499 9.7201 9.7201C9.8499 9.59031 9.92289 9.41432 9.92308 9.23077V5.07692C9.92289 4.89337 9.8499 4.71738 9.7201 4.58759C9.59031 4.4578 9.41432 4.3848 9.23077 4.38462H5.07692ZM18.9231 11.3077H14.7692C14.2186 11.3071 13.6906 11.0881 13.3012 10.6988C12.9119 10.3094 12.6929 9.78144 12.6923 9.23077V5.07692C12.6929 4.52626 12.9119 3.9983 13.3012 3.60892C13.6906 3.21954 14.2186 3.00055 14.7692 3H18.9231C19.4737 3.00055 20.0017 3.21954 20.3911 3.60892C20.7805 3.9983 20.9995 4.52626 21 5.07692V9.23077C20.9995 9.78144 20.7805 10.3094 20.3911 10.6988C20.0017 11.0881 19.4737 11.3071 18.9231 11.3077ZM14.7692 4.38462C14.5857 4.3848 14.4097 4.4578 14.2799 4.58759C14.1501 4.71738 14.0771 4.89337 14.0769 5.07692V9.23077C14.0771 9.41432 14.1501 9.59031 14.2799 9.7201C14.4097 9.8499 14.5857 9.92289 14.7692 9.92308H18.9231C19.1066 9.92289 19.2826 9.8499 19.4124 9.7201C19.5422 9.59031 19.6152 9.41432 19.6154 9.23077V5.07692C19.6152 4.89337 19.5422 4.71738 19.4124 4.58759C19.2826 4.4578 19.1066 4.3848 18.9231 4.38462H14.7692ZM9.23077 21H5.07692C4.52626 20.9995 3.9983 20.7805 3.60892 20.3911C3.21954 20.0017 3.00055 19.4737 3 18.9231V14.7692C3.00055 14.2186 3.21954 13.6906 3.60892 13.3012C3.9983 12.9119 4.52626 12.6929 5.07692 12.6923H9.23077C9.78144 12.6929 10.3094 12.9119 10.6988 13.3012C11.0881 13.6906 11.3071 14.2186 11.3077 14.7692V18.9231C11.3071 19.4737 11.0881 20.0017 10.6988 20.3911C10.3094 20.7805 9.78144 20.9995 9.23077 21ZM5.07692 14.0769C4.89337 14.0771 4.71738 14.1501 4.58759 14.2799C4.4578 14.4097 4.3848 14.5857 4.38462 14.7692V18.9231C4.3848 19.1066 4.4578 19.2826 4.58759 19.4124C4.71738 19.5422 4.89337 19.6152 5.07692 19.6154H9.23077C9.41432 19.6152 9.59031 19.5422 9.7201 19.4124C9.8499 19.2826 9.92289 19.1066 9.92308 18.9231V14.7692C9.92289 14.5857 9.8499 14.4097 9.7201 14.2799C9.59031 14.1501 9.41432 14.0771 9.23077 14.0769H5.07692ZM18.9231 21H14.7692C14.2186 20.9995 13.6906 20.7805 13.3012 20.3911C12.9119 20.0017 12.6929 19.4737 12.6923 18.9231V14.7692C12.6929 14.2186 12.9119 13.6906 13.3012 13.3012C13.6906 12.9119 14.2186 12.6929 14.7692 12.6923H18.9231C19.4737 12.6929 20.0017 12.9119 20.3911 13.3012C20.7805 13.6906 20.9995 14.2186 21 14.7692V18.9231C20.9995 19.4737 20.7805 20.0017 20.3911 20.3911C20.0017 20.7805 19.4737 20.9995 18.9231 21ZM14.7692 14.0769C14.5857 14.0771 14.4097 14.1501 14.2799 14.2799C14.1501 14.4097 14.0771 14.5857 14.0769 14.7692V18.9231C14.0771 19.1066 14.1501 19.2826 14.2799 19.4124C14.4097 19.5422 14.5857 19.6152 14.7692 19.6154H18.9231C19.1066 19.6152 19.2826 19.5422 19.4124 19.4124C19.5422 19.2826 19.6152 19.1066 19.6154 18.9231V14.7692C19.6152 14.5857 19.5422 14.4097 19.4124 14.2799C19.2826 14.1501 19.1066 14.0771 18.9231 14.0769H14.7692Z" fill="#808080"/>
</svg>
