<svg width="77" height="59" viewBox="0 0 77 59" fill="none" xmlns="http://www.w3.org/2000/svg">
<g filter="url(#filter0_d_74_870)">
<path d="M54.5805 29.4242C55.3482 30.1962 55.8256 31.2653 55.8256 32.4444C55.8256 33.6261 55.3482 34.6926 54.5805 35.4672C53.8102 36.2393 52.7496 36.7157 51.577 36.7157C50.402 36.7157 49.3413 36.2393 48.5711 35.4672C47.8033 34.6926 47.3296 33.6261 47.3296 32.4444C47.3296 31.2665 47.8045 30.1962 48.5711 29.4242C49.3413 28.6521 50.402 28.172 51.577 28.172C52.7496 28.172 53.8102 28.6521 54.5805 29.4242ZM66 31.5462V33.3452C66 33.8822 65.669 34.3413 65.1596 34.5058L63.8898 34.9191C63.4924 35.049 63.2094 35.3435 63.0987 35.7468C62.8463 36.636 62.4929 37.4929 62.0454 38.3007C61.8436 38.6657 61.8363 39.0752 62.0245 39.4477L62.6311 40.6466C62.8747 41.123 62.7849 41.681 62.4084 42.0634L61.1423 43.3365C60.7658 43.7152 60.2109 43.803 59.7335 43.5605L58.5412 42.9505C58.1721 42.7575 57.7636 42.7649 57.4006 42.9715C56.598 43.422 55.7457 43.7763 54.861 44.027C54.4599 44.1433 54.167 44.4266 54.0415 44.8263L53.6269 46.1032C53.4632 46.6154 53.0092 46.9446 52.4728 46.9446H50.6837C50.1497 46.9446 49.6932 46.6142 49.5296 46.1032L49.1186 44.8263C48.9894 44.4266 48.6966 44.142 48.2955 44.027C47.4109 43.7761 46.5585 43.4218 45.7559 42.9715C45.3929 42.7686 44.9856 42.7575 44.6153 42.9505L43.423 43.5605C42.9481 43.803 42.3944 43.7152 42.0142 43.3365L40.7481 42.0634C40.3716 41.681 40.2842 41.123 40.5254 40.6466L41.132 39.4477C41.3239 39.0765 41.3165 38.6657 41.111 38.3007C40.6631 37.4936 40.3108 36.6365 40.0615 35.7468C39.9458 35.3435 39.6641 35.049 39.2666 34.9191L37.9969 34.5058C37.4875 34.3413 37.1602 33.881 37.1602 33.3452V31.5462C37.1602 31.0054 37.4875 30.5501 37.9969 30.3855L39.2703 29.9686C39.6641 29.8387 39.9471 29.5479 40.0615 29.1445C40.3126 28.2555 40.6648 27.3986 41.111 26.5907C41.3165 26.2257 41.3239 25.8161 41.132 25.4437L40.5254 24.2447C40.2842 23.7647 40.3716 23.2066 40.7481 22.828L42.0142 21.5548C42.3944 21.1762 42.9493 21.0846 43.423 21.3309L44.6153 21.9409C44.9844 22.1302 45.3929 22.1227 45.7559 21.9198C46.5507 21.4744 47.4022 21.1168 48.2955 20.8607C48.6966 20.7481 48.9894 20.4647 49.1186 20.0651L49.5296 18.7882C49.6932 18.2759 50.151 17.9431 50.6837 17.9431H52.4728C53.0104 17.9431 53.4632 18.2759 53.6269 18.7882L54.0415 20.0651C54.167 20.4647 54.4599 20.7493 54.861 20.8607C55.7452 21.1145 56.5973 21.4699 57.4006 21.9198C57.7636 22.1227 58.1708 22.1302 58.5412 21.9409L59.7335 21.3309C60.2109 21.0859 60.7658 21.1762 61.1423 21.5548L62.4084 22.828C62.7849 23.2066 62.876 23.7647 62.6311 24.2447L62.0245 25.4437C61.8363 25.8149 61.8436 26.2257 62.0454 26.5907C62.4884 27.39 62.844 28.2462 63.0987 29.1445C63.2106 29.5479 63.4924 29.8424 63.8898 29.9686L65.1596 30.3855C65.669 30.5501 66 31.0054 66 31.5462ZM57.8558 32.4444C57.8558 30.7011 57.1545 29.1235 56.0176 27.9802C54.8807 26.8369 53.3107 26.1279 51.577 26.1279C49.8397 26.1279 48.2709 26.8369 47.134 27.9802C45.997 29.1235 45.2957 30.7023 45.2957 32.4444C45.2957 34.1915 45.997 35.7691 47.134 36.9124C48.2709 38.0557 49.8409 38.7609 51.577 38.7609C53.3107 38.7609 54.8795 38.0557 56.0176 36.9124C57.1545 35.7691 57.8558 34.1903 57.8558 32.4444ZM37.923 45.9547H33.4824L32.129 42.1599H22.4431L21.0933 45.9547H16.6527C16.0917 45.9547 15.634 46.4113 15.634 46.9755C15.634 47.5397 16.0904 48 16.6527 48H37.9218C38.4829 48 38.9406 47.541 38.9406 46.9755C38.9418 46.41 38.4853 45.9547 37.923 45.9547ZM35.1681 30.9844H3V6.19847C3 4.43776 4.43344 3 6.18433 3H48.3939C50.1448 3 51.5782 4.43776 51.5782 6.19847V15.8966H50.6825C49.2663 15.8966 48.0322 16.801 47.5954 18.1559L47.3124 19.022C46.5692 19.2608 45.8469 19.5627 45.153 19.924L44.3434 19.5095C43.0846 18.8636 41.5737 19.1024 40.5734 20.1096L39.3073 21.3828C38.3057 22.3863 38.0695 23.9045 38.7105 25.174L39.1215 25.9881C38.7659 26.686 38.4656 27.4123 38.2282 28.1596L37.3632 28.4405C36.2004 28.8203 35.3699 29.8028 35.1681 30.9844ZM15.7927 17.5026L22.5243 13.7214C23.0128 13.4479 23.19 12.8268 22.918 12.3356C22.6461 11.8443 22.0285 11.6662 21.54 11.9396L13.2322 16.6043C13.0628 16.6985 12.9226 16.8382 12.8274 17.0077C12.5554 17.4989 12.7326 18.12 13.2211 18.3935L21.54 23.0656C22.0285 23.339 22.6461 23.1633 22.918 22.6696C23.19 22.1784 23.0128 21.5573 22.5243 21.2838L15.7927 17.5026ZM29.2523 8.89211C28.7047 8.7659 28.1609 9.10987 28.0354 9.66048L24.5656 24.8931C24.4401 25.44 24.7821 25.9869 25.326 26.1131C25.8735 26.2393 26.4174 25.8953 26.5429 25.3447L30.0127 10.1158C30.1382 9.56521 29.7961 9.01831 29.2523 8.89211ZM33.037 23.0656L41.3559 18.3935C41.8444 18.12 42.0216 17.4989 41.7496 17.0077C41.6547 16.8379 41.5145 16.6982 41.3448 16.6043L33.037 11.9396C32.5485 11.6662 31.9309 11.8443 31.659 12.3356C31.387 12.8268 31.5642 13.4479 32.0527 13.7214L38.7843 17.5026L32.0527 21.2838C31.5642 21.5573 31.387 22.1784 31.659 22.6696C31.9309 23.1633 32.5485 23.339 33.037 23.0656ZM37.3657 36.4496C36.0196 36.0116 35.1226 34.7694 35.1226 33.3452V33.0297H3V36.9161C3 38.6731 4.43344 40.1146 6.18433 40.1146H38.5407C38.5899 39.9809 38.6453 39.8486 38.7117 39.7186L39.1227 38.9045C38.7667 38.2058 38.4667 37.4797 38.2257 36.733L37.3657 36.4496Z" fill="white"/>
</g>
<defs>
<filter id="filter0_d_74_870" x="0" y="0" width="77" height="59" filterUnits="userSpaceOnUse" color-interpolation-filters="sRGB">
<feFlood flood-opacity="0" result="BackgroundImageFix"/>
<feColorMatrix in="SourceAlpha" type="matrix" values="0 0 0 0 0 0 0 0 0 0 0 0 0 0 0 0 0 0 127 0" result="hardAlpha"/>
<feOffset dx="4" dy="4"/>
<feGaussianBlur stdDeviation="3.5"/>
<feComposite in2="hardAlpha" operator="out"/>
<feColorMatrix type="matrix" values="0 0 0 0 0 0 0 0 0 0 0 0 0 0 0 0 0 0 0.2 0"/>
<feBlend mode="normal" in2="BackgroundImageFix" result="effect1_dropShadow_74_870"/>
<feBlend mode="normal" in="SourceGraphic" in2="effect1_dropShadow_74_870" result="shape"/>
</filter>
</defs>
</svg>
