<svg width="24" height="24" viewBox="0 0 24 24" fill="none" xmlns="http://www.w3.org/2000/svg">
<path d="M20.4716 13.5843C20.7648 13.5843 21 13.3475 21 13.0552V10.9302C21 10.6379 20.7648 10.4011 20.4716 10.4011C20.1813 10.4011 19.9461 10.6379 19.9461 10.9302V11.4622H17.9777C17.8239 10.6934 17.5277 9.97434 17.1155 9.33712H18.3639C19.2348 9.33712 19.9461 8.62098 19.9461 7.74407V6.02241C20.5413 5.80611 20.971 5.23319 20.971 4.5609C20.971 3.70153 20.2771 3 19.4265 3C18.5729 3 17.879 3.70153 17.879 4.5609C17.879 5.22442 18.3 5.80026 18.8894 6.01364V7.74407C18.8894 8.03638 18.6542 8.27606 18.3639 8.27606H16.2503C15.1529 7.19454 13.6519 6.53102 12 6.53102C10.3481 6.53102 8.8471 7.19454 7.74968 8.27606H5.63613C5.34581 8.27606 5.11065 8.03638 5.11065 7.74407V6.01364C5.7 5.80026 6.12097 5.22442 6.12097 4.5609C6.12097 3.70153 5.4271 3 4.57355 3C3.7229 3 3.02903 3.70153 3.02903 4.5609C3.02903 5.23319 3.45871 5.80611 4.05387 6.02241V7.74407C4.05387 8.62098 4.76516 9.33712 5.63613 9.33712H6.88452C6.4661 9.98414 6.1735 10.7053 6.02226 11.4622H4.05387V10.9302C4.05387 10.6379 3.81871 10.4011 3.52839 10.4011C3.23516 10.4011 3 10.6379 3 10.9302V13.0552C3 13.3475 3.23516 13.5843 3.52839 13.5843C3.81871 13.5843 4.05387 13.3475 4.05387 13.0552V12.5232H5.90613C5.90323 12.5729 5.90323 12.6197 5.90323 12.6694C5.90323 13.707 6.18484 14.277 6.61161 14.6453H5.63613C4.76516 14.6453 4.05387 15.3615 4.05387 16.2384V17.9776C3.45871 18.191 3.02903 18.7668 3.02903 19.442C3.02903 20.3014 3.7229 21 4.57355 21C5.4271 21 6.12097 20.3014 6.12097 19.442C6.1211 19.1244 6.02425 18.8144 5.84353 18.554C5.66281 18.2936 5.40696 18.0954 5.11065 17.9864V16.2384C5.11065 15.9461 5.34581 15.7064 5.63613 15.7064H8.13V16.5365C8.13 17.051 8.54516 17.469 9.05613 17.469H14.9439C15.4548 17.469 15.87 17.051 15.87 16.5365V15.7064H18.3639C18.6542 15.7064 18.8894 15.9461 18.8894 16.2384V17.9864C18.593 18.0954 18.3372 18.2936 18.1565 18.554C17.9757 18.8144 17.8789 19.1244 17.879 19.442C17.879 20.3014 18.5729 21 19.4265 21C20.2771 21 20.971 20.3014 20.971 19.442C20.971 18.7668 20.5413 18.191 19.9461 17.9776V16.2384C19.9461 15.3615 19.2348 14.6453 18.3639 14.6453H17.3884C17.8152 14.277 18.0968 13.707 18.0968 12.6694C18.0968 12.6197 18.0968 12.5729 18.0939 12.5232H19.9461V13.0552C19.9461 13.3475 20.1813 13.5843 20.4716 13.5843ZM18.75 4.5609C18.75 4.18383 19.0519 3.87691 19.4265 3.87691C19.5543 3.87767 19.6793 3.91487 19.7871 3.9842C19.8948 4.05354 19.9809 4.15217 20.0352 4.26869C20.0896 4.38521 20.1101 4.51485 20.0943 4.6426C20.0785 4.77036 20.0272 4.891 19.9461 4.99058C19.8817 5.06999 19.8003 5.13362 19.7079 5.17667C19.6155 5.21972 19.5146 5.24107 19.4128 5.2391C19.311 5.23713 19.211 5.21189 19.1203 5.16529C19.0296 5.1187 18.9507 5.05196 18.8894 4.97012C18.7994 4.8529 18.7504 4.70904 18.75 4.5609ZM4.57355 5.23904C4.36452 5.23904 4.17871 5.14258 4.05387 4.99058C3.97283 4.891 3.92145 4.77036 3.90568 4.6426C3.88992 4.51485 3.9104 4.38521 3.96478 4.26869C4.01915 4.15217 4.10518 4.05354 4.21291 3.9842C4.32065 3.91487 4.44569 3.87767 4.57355 3.87691C4.94806 3.87691 5.25 4.18383 5.25 4.5609C5.2496 4.70904 5.20061 4.8529 5.11065 4.97012C4.98871 5.13089 4.79419 5.23904 4.57355 5.23904ZM5.25 19.442C5.25 19.8162 4.94806 20.1231 4.57355 20.1231C4.39465 20.1223 4.22333 20.0502 4.0971 19.9226C3.97087 19.7949 3.9 19.6222 3.9 19.442C3.9 19.2783 3.95806 19.1293 4.05387 19.0123C4.17871 18.8574 4.36452 18.761 4.57355 18.761C4.79419 18.761 4.98871 18.8662 5.11065 19.0299C5.19774 19.1439 5.25 19.2871 5.25 19.442ZM19.4265 18.761C19.6355 18.761 19.8213 18.8574 19.9461 19.0123C20.0419 19.1293 20.1 19.2783 20.1 19.442C20.1 19.6222 20.0291 19.7949 19.9029 19.9226C19.7767 20.0502 19.6054 20.1223 19.4265 20.1231C19.0519 20.1231 18.75 19.8162 18.75 19.442C18.75 19.2871 18.8023 19.1439 18.8894 19.0299C19.0113 18.8662 19.2058 18.761 19.4265 18.761ZM16.0994 14.3735C15.9135 14.4495 15.7132 14.5313 15.4926 14.6453C15.4026 14.6921 15.3068 14.7447 15.211 14.8032C15.0803 14.8821 14.999 15.0253 14.999 15.1803V16.5365C14.999 16.5687 14.9758 16.5921 14.9439 16.5921H9.05613C9.02419 16.5921 9.00097 16.5687 9.00097 16.5365V15.1803C9.00097 15.0253 8.91968 14.8821 8.78903 14.8032C8.69323 14.7447 8.59742 14.6921 8.50742 14.6453C8.28677 14.5313 8.08645 14.4495 7.90064 14.3735C7.16032 14.0724 6.77419 13.859 6.77419 12.6694C6.77419 12.6197 6.77419 12.5729 6.7771 12.5232C6.78581 12.1578 6.83226 11.8042 6.91355 11.4622C7.09935 10.67 7.46226 9.94511 7.96161 9.33712C8.29258 8.92498 8.68742 8.56544 9.13161 8.27606C9.95613 7.72653 10.9432 7.40793 12 7.40793C13.0568 7.40793 14.0439 7.72653 14.8684 8.27606C15.3126 8.56544 15.7074 8.92498 16.0384 9.33712C16.5377 9.94511 16.9006 10.67 17.0865 11.4622C17.1677 11.8042 17.2142 12.1578 17.2229 12.5232C17.2258 12.5729 17.2258 12.6197 17.2258 12.6694C17.2258 13.859 16.8397 14.0724 16.0994 14.3735Z" fill="#808080"/>
<path d="M11.2777 10.7893L9.42803 9.85829C9.29147 9.78912 9.13952 9.75652 8.98682 9.76364C8.83412 9.77075 8.68581 9.81734 8.55619 9.89892C8.42581 9.97956 8.31821 10.0926 8.24373 10.2272C8.16925 10.3617 8.13038 10.5133 8.13086 10.6674V11.5978C8.13086 12.6089 8.94783 13.4317 9.95235 13.4317C10.9569 13.4317 11.7738 12.6091 11.7738 11.5978C11.7742 11.4299 11.7279 11.2652 11.6402 11.1223C11.5525 10.9795 11.427 10.8641 11.2777 10.7893ZM9.95206 12.5545C9.70006 12.5542 9.45847 12.4533 9.28028 12.2738C9.10209 12.0944 9.00185 11.8512 9.00154 11.5975V10.6671L9.03986 10.6431L10.9026 11.5972C10.9023 11.851 10.8021 12.0943 10.6239 12.2737C10.4457 12.4532 10.2041 12.5542 9.95206 12.5545ZM12.3272 14.265C12.2969 14.2038 12.2503 14.1522 12.1924 14.1163C12.1346 14.0803 12.068 14.0614 12 14.0616C11.8603 14.0616 11.7352 14.1396 11.6728 14.2653L11.4574 14.6991C11.4002 14.8143 11.4063 14.9482 11.4733 15.0575C11.5404 15.1668 11.6568 15.2323 11.7846 15.2323H12.2154C12.3432 15.2323 12.4596 15.1671 12.5266 15.0575C12.5597 15.0042 12.5785 14.9432 12.5813 14.8804C12.5841 14.8176 12.5708 14.7552 12.5426 14.6991L12.3272 14.265ZM15.445 9.8998C15.3146 9.81874 15.1659 9.77247 15.0128 9.76536C14.8598 9.75825 14.7074 9.79054 14.5702 9.85917L12.7217 10.7899C12.5725 10.8646 12.447 10.9798 12.3594 11.1226C12.2718 11.2654 12.2257 11.43 12.2262 11.5978C12.2262 12.6089 13.0431 13.4317 14.0476 13.4317C15.0522 13.4317 15.8691 12.6091 15.8691 11.5978V10.6674C15.8697 10.5136 15.8311 10.3621 15.7568 10.2277C15.6825 10.0933 15.5751 9.98037 15.445 9.8998ZM14.9984 11.5978C14.9984 12.1254 14.572 12.5548 14.0479 12.5548C13.5239 12.5548 13.0974 12.1254 13.1119 11.5741L14.9598 10.6437L14.9984 10.6677V11.5978Z" fill="#808080"/>
</svg>
